# Blender v2.71 (sub 5) OBJ File: 'dish.blend'
# www.blender.org
mtllib dish/base.mtl
v -0.270377 -1.088127 -1.390971
v -1.339804 -1.088127 -0.461332
v -0.794920 0.932680 -0.273714
v -0.160418 0.932680 -0.825278
v -1.069427 -1.088127 0.929639
v -0.634503 0.932680 0.551565
v 0.270377 -1.088127 1.390971
v 0.160418 0.932680 0.825278
v 1.339805 -1.088127 0.461332
v 0.794920 0.932680 0.273713
v 1.069427 -1.088127 -0.929639
v 0.634503 0.932680 -0.551565
v 0.000000 0.932680 -0.000000
vt 0.397114 0.268218
vt 0.426604 0.268218
vt 0.426604 0.540055
vt 0.279157 0.268218
vt 0.279157 0.540055
vt 0.249668 0.540024
vt 0.308646 0.268218
vt 0.308646 0.540055
vt 0.338136 0.268218
vt 0.338136 0.540055
vt 0.367625 0.268218
vt 0.367625 0.540055
vt 0.397114 0.540055
vt 0.249668 0.268218
vt 0.588310 0.816303
vt 0.515452 0.816303
vt 0.551881 0.743445
vt 0.479022 0.743445
vt 0.515452 0.670586
vt 0.588310 0.670586
vt 0.624740 0.743445
vn -0.636900 0.239800 -0.732700
vn -0.953000 0.239800 0.185200
vn -0.316100 0.239800 0.917900
vn 0.636900 0.239800 0.732700
vn 0.953000 0.239800 -0.185200
vn 0.316100 0.239800 -0.917900
vn 0.000000 1.000000 -0.000000
usemtl lambert2SG.001
s off
f 1/1/1 2/2/1 3/3/1
f 5/4/2 6/5/2 3/6/2
f 7/7/3 8/8/3 6/5/3
f 9/9/4 10/10/4 8/8/4
f 11/11/5 12/12/5 10/10/5
f 11/11/6 1/1/6 4/13/6
f 4/13/1 1/1/1 3/3/1
f 2/14/2 5/4/2 3/6/2
f 5/4/3 7/7/3 6/5/3
f 7/7/4 9/9/4 8/8/4
f 9/9/5 11/11/5 10/10/5
f 12/12/6 11/11/6 4/13/6
s 1
f 4/15/7 3/16/7 13/17/7
f 3/16/7 6/18/7 13/17/7
f 6/18/7 8/19/7 13/17/7
f 8/19/7 10/20/7 13/17/7
f 10/20/7 12/21/7 13/17/7
f 12/21/7 4/15/7 13/17/7
